# xmcd CD database file
#
# Track frame offsets:
#	150
#	19801
#	40647
#	80464
#	167582
#	191878
#	251001
#
# Disc length: 4730 seconds
#
# Revision: 4
# Processed by: cddbd v1.5.1PL2 Copyright (c) Steve Scherf et al.
# Submitted via: CDex 1.51
#
DISCID=51127807
DTITLE=The Allman Brothers Band - At Fillmore East [live]
DYEAR=1971
DGENRE=Blues
TTITLE0=Statesboro Blues
TTITLE1=Done Somebody Wrong
TTITLE2=Stormy Monday
TTITLE3=You Don't Love Me
TTITLE4=Hot 'Lanta
TTITLE5=In Memory of Elizabeth Reed
TTITLE6=Whipping Post
EXTD=YEAR: 1971
EXTT0=
EXTT1=
EXTT2=
EXTT3=
EXTT4=
EXTT5=
EXTT6=
PLAYORDER=
